<svg xmlns="http://www.w3.org/2000/svg" width="1024" height="1024" fill="none" viewBox="0 0 1024 1024"><ellipse cx="518" cy="646" fill="#363636" rx="300" ry="250"/><circle cx="512" cy="477" r="347.5" fill="#fff" stroke="#363636" stroke-width="5"/><ellipse cx="512" cy="396.231" fill="#363636" rx="305.944" ry="269.231"/><path fill="#52d4ff" d="M293 417.774 539.774 171l21.774 21.774-246.774 246.774zM329.291 454.064l229.147-229.147 21.774 21.774-229.147 229.147zM365.581 490.355l211.52-211.52 21.774 21.774-211.52 211.52z"/><path fill="#ffa8f6" d="m401.871 526.645 246.774-246.774 21.774 21.774-246.774 246.774zM438.162 562.935l141.014-141.014 21.774 21.774-141.014 141.014zM474.452 599.226l176.267-176.267 21.774 21.774L496.226 621z"/></svg>