<svg xmlns="http://www.w3.org/2000/svg" width="1024" height="1024" fill="none"><g clip-path="url(#a)"><ellipse cx="518" cy="593" fill="#363636" rx="300" ry="250"/><circle cx="512" cy="424" r="347.5" fill="#fff" stroke="#363636" stroke-width="5"/><ellipse cx="512" cy="343.231" fill="#363636" rx="305.944" ry="269.231"/><path fill="#363636" d="M212.56 875h17.6v96h28.96v16h-46.56zm69.225 0h23.84l18.24 112h-17.6l-3.2-22.24v.32h-20l-3.2 21.92h-16.32zm19.2 74.88-7.84-55.36h-.32l-7.68 55.36zM326.056 875h16.96l7.84 86.08h.32l8.32-86.08h19.2l8.32 86.08h.32l7.84-86.08h15.2l-11.36 112h-21.92l-8-75.52h-.32l-8 75.52h-23.36zm111.623 113.6q-9.6 0-14.56-6.56t-4.96-19.04v-11.68q0-8.8 3.04-14.72t9.92-8.64v-.32q-6.24-2.56-9.28-8.16-2.88-5.76-2.88-14.72v-2.08q0-13.6 6.56-20.64t19.68-7.04h20.16v16h-19.84q-4.32 0-6.72 2.56-2.24 2.56-2.24 8.32v6.88q0 6.4 2.56 9.12 2.72 2.72 8 2.72h6.88v-12.48h17.28v12.48h4.96v16h-4.96v36.8q0 4.8.32 7.84.32 2.88 1.6 5.76h-17.6q-1.28-3.52-1.6-8.8h-.32q-2.88 5.28-6.72 7.84-3.68 2.56-9.28 2.56m6.56-16q8.32 0 9.76-10.08V936.6h-6.72q-6.08 0-8.8 3.36-2.72 3.2-2.72 10.88v11.36q0 5.6 2.24 8t6.24 2.4m67.199 16q-12.96 0-19.84-7.36t-6.881-20.8v-58.88q0-13.44 6.881-20.8 6.88-7.36 19.84-7.36t19.84 7.36 6.88 20.8v58.88q0 13.44-6.88 20.8t-19.84 7.36m0-16q9.12 0 9.119-11.04v-61.12q0-11.04-9.119-11.04t-9.12 11.04v61.12q0 11.04 9.12 11.04M550.06 875h26.08q13.6 0 19.84 6.4 6.24 6.24 6.24 19.36v6.88q0 17.44-11.52 22.08v.32q6.4 1.92 8.96 7.84 2.72 5.92 2.72 15.84v19.68q0 4.8.32 7.84.32 2.88 1.6 5.76h-17.92q-.96-2.72-1.28-5.12t-.32-8.64v-20.48q0-7.68-2.56-10.72-2.4-3.04-8.48-3.04h-6.08v48h-17.6zm24 48q5.28 0 7.84-2.72 2.72-2.72 2.72-9.12v-8.64q0-6.08-2.24-8.8-2.08-2.72-6.72-2.72h-8v32zm40.531-48h26.88q13.12 0 19.68 7.04t6.56 20.64v56.64q0 13.6-6.56 20.64t-19.68 7.04h-26.88zm26.56 96q4.32 0 6.56-2.56 2.4-2.56 2.4-8.32v-58.24q0-5.76-2.4-8.32-2.24-2.56-6.56-2.56h-8.96v80zm38.44-96h48v16h-30.4v29.6h24.16v16h-24.16V971h30.4v16h-48zm58.125 0h26.08q13.6 0 19.84 6.4 6.24 6.24 6.24 19.36v6.88q0 17.44-11.52 22.08v.32q6.4 1.92 8.96 7.84 2.72 5.92 2.72 15.84v19.68q0 4.8.32 7.84.32 2.88 1.6 5.76h-17.92q-.96-2.72-1.28-5.12t-.32-8.64v-20.48q0-7.68-2.56-10.72-2.4-3.04-8.48-3.04h-6.08v48h-17.6zm24 48q5.28 0 7.84-2.72 2.72-2.72 2.72-9.12v-8.64q0-6.08-2.24-8.8-2.079-2.72-6.72-2.72h-8v32z"/><path fill="#52D4FF" d="M293 364.774 539.774 118l21.774 21.774-246.774 246.774zM329.29 401.064l229.147-229.147 21.774 21.774-229.147 229.147zM365.581 437.355l211.52-211.52 21.774 21.774-211.52 211.52z"/><path fill="#FFA8F6" d="m401.871 473.645 246.774-246.774 21.774 21.774-246.774 246.774zM438.161 509.935l141.014-141.014 21.774 21.774-141.014 141.014zM474.452 546.226l176.267-176.267 21.774 21.774L496.226 568z"/></g><defs><clipPath id="a"><path fill="#fff" d="M0 0h1024v1024H0z"/></clipPath></defs></svg>